{"title":"Life As We Know It 2010 TS H264 Feel-Free","uid":6046219,"size":664761516,"categoryP":"video","categoryS":"movies","magnet":"?xt=urn:btih:7fbbf0bd9f81d778b87d2a32461bed6d1318a9bc&amp;dn=Life+As+We+Know+It+2010+TS+H264+Feel-Free&amp;tr=udp%3A%2F%2Ftracker.openbittorrent.com%3A80&amp;tr=udp%3A%2F%2Fopen.demonii.com%3A1337&amp;tr=udp%3A%2F%2Ftracker.coppersurfer.tk%3A6969&amp;tr=udp%3A%2F%2Fexodus.desync.com%3A6969","seeders":2,"leechers":0,"uploader":"hiest","files":7,"time":1292561571,"description":"Genre:Comedy | Drama\nLanguage:English\nIMDb:http://www.imdb.com/title/tt1055292/\nSource:TS.MD.XviD-SERENiTY/Audio:Imagine/Own Thx.\n\n\nFormat : MPEG-4\nFormat profile : Base Media\nCodec ID : isom\nFile size : 633 MiB\nDuration : 1h 45mn\nOverall bit rate : 835 Kbps\n\n\nVideo\nFormat settings, CABAC : Yes\nFormat settings, ReFrames : 4 frames\nFormat settings, GOP : N=1\nCodec ID : avc1\nCodec ID/Info : Advanced Video Coding\nDuration : 1h 45mn\nBit rate mode : Variable\nBit rate : 700 Kbps\nWidth : 720 pixels\nHeight : 384 pixels\nDisplay aspect ratio : 1.875\nFrame rate mode : Constant\nFrame rate : 25.013 fps\nColor space : YUV\nChroma subsampling : 4:2:0\nBit depth : 8 bits\nScan type : Progressive\nBits/(Pixel*Frame) : 0.101\nStream size : 532 MiB (84%)\n\n\nAudio\nID : 2\nFormat : MPEG Audio\nFormat version : Version 1\nFormat profile : Layer 3\nMode : Joint stereo\nMode extension : MS Stereo\nCodec ID : 6B\nDuration : 1h 45mn\nBit rate mode : Constant\nBit rate : 128 Kbps\nChannel(s) : 2 channels\nSampling rate : 44.1 KHz\nStream size : 97.0 MiB (15%)\n\n\n\nPlot:\nTwo single adults become caregivers to an orphaned girl when their mutual best friends die in an accident.\n\n\n\n\n================================== &lt;a href=&quot;\nhttp://thepiratebay.se/user/hiest&quot; rel=&quot;nofollow&quot; target=&quot;_NEW&quot;&gt;\nhttp://thepiratebay.se/user/hiest&lt;/a&gt;\n==================================\n\n\n\nScreenshots:\n &lt;a href=&quot;\nhttp://rapidhdd.com/images/612913vlcsnap-2010-12-16-22h34m30s238.png&quot; rel=&quot;nofollow&quot; target=&quot;_NEW&quot;&gt;\nhttp://rapidhdd.com/images/612913vlcsnap-2010-12-16-22h34m30s238.png&lt;/a&gt;\n &lt;a href=&quot;\nhttp://www.rapidhdd.com/images/656616vlcsnap-2010-12-16-22h35m32s80.png&quot; rel=&quot;nofollow&quot; target=&quot;_NEW&quot;&gt;\nhttp://www.rapidhdd.com/images/656616vlcsnap-2010-12-16-22h35m32s80.png&lt;/a&gt;\n &lt;a href=&quot;\nhttp://www.rapidhdd.com/images/919937vlcsnap-2010-12-16-22h34m36s35.png&quot; rel=&quot;nofollow&quot; target=&quot;_NEW&quot;&gt;\nhttp://www.rapidhdd.com/images/919937vlcsnap-2010-12-16-22h34m36s35.png&lt;/a&gt;","torrent":{"xt":"urn:btih:7fbbf0bd9f81d778b87d2a32461bed6d1318a9bc","amp;dn":"Life+As+We+Know+It+2010+TS+H264+Feel-Free","amp;tr":["udp%3A%2F%2Ftracker.openbittorrent.com%3A80","udp%3A%2F%2Fopen.demonii.com%3A1337","udp%3A%2F%2Ftracker.coppersurfer.tk%3A6969","udp%3A%2F%2Fexodus.desync.com%3A6969"],"infoHash":"7fbbf0bd9f81d778b87d2a32461bed6d1318a9bc","infoHashBuffer":{"type":"Buffer","data":[127,187,240,189,159,129,215,120,184,125,42,50,70,27,237,109,19,24,169,188]},"announce":[],"urlList":[]}}